<?xml version="1.0" encoding="UTF-8" standalone="no"?>
<!-- Created with Inkscape (http://www.inkscape.org/) -->

<svg
   xmlns:dc="http://purl.org/dc/elements/1.1/"
   xmlns:cc="http://creativecommons.org/ns#"
   xmlns:rdf="http://www.w3.org/1999/02/22-rdf-syntax-ns#"
   xmlns:svg="http://www.w3.org/2000/svg"
   xmlns="http://www.w3.org/2000/svg"
   xmlns:sodipodi="http://sodipodi.sourceforge.net/DTD/sodipodi-0.dtd"
   xmlns:inkscape="http://www.inkscape.org/namespaces/inkscape"
   width="210mm"
   height="297mm"
   id="svg2"
   version="1.1"
   inkscape:version="0.48.5 r10040"
   sodipodi:docname="dibujo.svg">
  <defs
     id="defs4" />
  <sodipodi:namedview
     id="base"
     pagecolor="#ffffff"
     bordercolor="#666666"
     borderopacity="1.0"
     inkscape:pageopacity="0.0"
     inkscape:pageshadow="2"
     inkscape:zoom="1.4"
     inkscape:cx="364.48896"
     inkscape:cy="820.72139"
     inkscape:document-units="px"
     inkscape:current-layer="layer1"
     showgrid="false"
     inkscape:snap-grids="true"
     inkscape:window-width="1920"
     inkscape:window-height="1017"
     inkscape:window-x="-2"
     inkscape:window-y="-3"
     inkscape:window-maximized="1">
    <inkscape:grid
       type="xygrid"
       id="grid2985" />
  </sodipodi:namedview>
  <metadata
     id="metadata7">
    <rdf:RDF>
      <cc:Work
         rdf:about="">
        <dc:format>image/svg+xml</dc:format>
        <dc:type
           rdf:resource="http://purl.org/dc/dcmitype/StillImage" />
        <dc:title></dc:title>
      </cc:Work>
    </rdf:RDF>
  </metadata>
  <g
     inkscape:label="Capa 1"
     inkscape:groupmode="layer"
     id="layer1">
    <path
       style="fill:none;stroke:#000000;stroke-width:1px;stroke-linecap:butt;stroke-linejoin:miter;stroke-opacity:1"
       d="m 20,142.36218 70,0 0,-40 40,0 0,40 40,0 0,-40 40,0 0,40 40,0 0,-40 40,0 0,40 40,0 0,-40 40,0 0,40 40,0 0,-40 40,0 0,40 40,0 0,-40 40,0 0,40 40,0 0,-40 40,0 0,40 40,0 0,-40 40,0 0,40 40,0"
       id="path2987"
       inkscape:connector-curvature="0"
       sodipodi:nodetypes="cccccccccccccccccccccccccccccccccc" />
    <text
       xml:space="preserve"
       style="font-size:40px;font-style:normal;font-weight:normal;line-height:125%;letter-spacing:0px;word-spacing:0px;fill:#000000;fill-opacity:1;stroke:none;font-family:Sans"
       x="66.428574"
       y="88.790756"
       id="text2989"
       sodipodi:linespacing="125%"><tspan
         sodipodi:role="line"
         id="tspan2991"
         x="66.428574"
         y="88.790756"
         style="font-size:20px">Reloj 28 MHz</tspan></text>
    <path
       style="fill:none;stroke:#000000;stroke-width:1px;stroke-linecap:butt;stroke-linejoin:miter;stroke-opacity:1"
       d="m 730,222.36218 -40,0 0,-40 -40,0 0,40 -40,0 0,-40 -40,0 0,40 -40,0 0,-40 -40,0 0,40 -40,0 0,-40 -40,0 0,40 0,-40 -320,0 0,40 -70,0"
       id="path3012"
       inkscape:connector-curvature="0" />
    <path
       style="fill:none;stroke:#000000;stroke-width:1px;stroke-linecap:butt;stroke-linejoin:miter;stroke-opacity:1"
       d="m 20,292.36218 70,0 0,-40 160,0 0,40 0,-40 40,0 0,40 40,0 0,-40 40,0 0,40 40,0 0,-40 160,0 0,40 0,-40 40,0 0,40 40,0 0,-40 40,0 0,40 40,0"
       id="path3014"
       inkscape:connector-curvature="0" />
    <path
       style="fill:none;stroke:#000000;stroke-width:1px;stroke-linecap:butt;stroke-linejoin:miter;stroke-opacity:1"
       d="m 20,362.36218 70,0 0,-40 40,0 40,0 0,40 0,-40 40,0 0,40 40,0 0,-40 80,0 0,40 0,-40 40,0 0,40 40,0 0,-40 80,0 0,40 0,-40 40,0 0,40 40,0 0,-40 80,0 0,40 0,-40 40,0 0,40 40,0"
       id="path3016"
       inkscape:connector-curvature="0" />
    <text
       xml:space="preserve"
       style="font-size:40px;font-style:normal;font-weight:normal;line-height:125%;letter-spacing:0px;word-spacing:0px;fill:#000000;fill-opacity:1;stroke:none;font-family:Sans"
       x="40"
       y="172.36218"
       id="text3018"
       sodipodi:linespacing="125%"><tspan
         sodipodi:role="line"
         id="tspan3020"
         x="40"
         y="172.36218"
         style="font-size:12px">Turbo x1</tspan></text>
    <text
       xml:space="preserve"
       style="font-size:40px;font-style:normal;font-weight:normal;line-height:125%;letter-spacing:0px;word-spacing:0px;fill:#000000;fill-opacity:1;stroke:none;font-family:Sans"
       x="40"
       y="242.36218"
       id="text3018-3"
       sodipodi:linespacing="125%"><tspan
         sodipodi:role="line"
         id="tspan3020-6"
         x="40"
         y="242.36218"
         style="font-size:12px">Turbo x2</tspan></text>
    <text
       xml:space="preserve"
       style="font-size:40px;font-style:normal;font-weight:normal;line-height:125%;letter-spacing:0px;word-spacing:0px;fill:#000000;fill-opacity:1;stroke:none;font-family:Sans"
       x="40"
       y="312.36218"
       id="text3018-3-7"
       sodipodi:linespacing="125%"><tspan
         sodipodi:role="line"
         id="tspan3020-6-5"
         x="40"
         y="312.36218"
         style="font-size:12px">Turbo x4</tspan></text>
    <text
       xml:space="preserve"
       style="font-size:40px;font-style:normal;font-weight:normal;line-height:125%;letter-spacing:0px;word-spacing:0px;fill:#000000;fill-opacity:1;stroke:none;font-family:Sans"
       x="218.57143"
       y="217.36218"
       id="text3064"
       sodipodi:linespacing="125%"><tspan
         sodipodi:role="line"
         id="tspan3066"
         x="218.57143"
         y="217.36218"
         style="font-size:20px">CPU</tspan></text>
    <text
       xml:space="preserve"
       style="font-size:40px;font-style:normal;font-weight:normal;line-height:125%;letter-spacing:0px;word-spacing:0px;fill:#000000;fill-opacity:1;stroke:none;font-family:Sans"
       x="150"
       y="282.36218"
       id="text3064-3"
       sodipodi:linespacing="125%"><tspan
         sodipodi:role="line"
         id="tspan3066-5"
         x="150"
         y="282.36218"
         style="font-size:20px">CPU</tspan></text>
    <text
       xml:space="preserve"
       style="font-size:40px;font-style:normal;font-weight:normal;line-height:125%;letter-spacing:0px;word-spacing:0px;fill:#000000;fill-opacity:1;stroke:none;font-family:Sans"
       x="470"
       y="282.36218"
       id="text3064-6"
       sodipodi:linespacing="125%"><tspan
         sodipodi:role="line"
         id="tspan3066-2"
         x="470"
         y="282.36218"
         style="font-size:20px">CPU</tspan></text>
    <text
       xml:space="preserve"
       style="font-size:40px;font-style:normal;font-weight:normal;line-height:125%;letter-spacing:0px;word-spacing:0px;fill:#000000;fill-opacity:1;stroke:none;font-family:Sans"
       x="110"
       y="352.36218"
       id="text3064-9"
       sodipodi:linespacing="125%"><tspan
         sodipodi:role="line"
         id="tspan3066-1"
         x="110"
         y="352.36218"
         style="font-size:20px">CPU</tspan></text>
    <text
       xml:space="preserve"
       style="font-size:40px;font-style:normal;font-weight:normal;line-height:125%;letter-spacing:0px;word-spacing:0px;fill:#000000;fill-opacity:1;stroke:none;font-family:Sans"
       x="270"
       y="352.36218"
       id="text3064-2"
       sodipodi:linespacing="125%"><tspan
         sodipodi:role="line"
         id="tspan3066-7"
         x="270"
         y="352.36218"
         style="font-size:20px">CPU</tspan></text>
    <text
       xml:space="preserve"
       style="font-size:40px;font-style:normal;font-weight:normal;line-height:125%;letter-spacing:0px;word-spacing:0px;fill:#000000;fill-opacity:1;stroke:none;font-family:Sans"
       x="420"
       y="352.36218"
       id="text3064-0"
       sodipodi:linespacing="125%"><tspan
         sodipodi:role="line"
         id="tspan3066-9"
         x="420"
         y="352.36218"
         style="font-size:20px">CPU</tspan></text>
    <text
       xml:space="preserve"
       style="font-size:40px;font-style:normal;font-weight:normal;line-height:125%;letter-spacing:0px;word-spacing:0px;fill:#000000;fill-opacity:1;stroke:none;font-family:Sans"
       x="590"
       y="352.36218"
       id="text3064-36"
       sodipodi:linespacing="125%"><tspan
         sodipodi:role="line"
         id="tspan3066-0"
         x="590"
         y="352.36218"
         style="font-size:20px">CPU</tspan></text>
    <rect
       style="fill:#2eb585;fill-opacity:0.43265309;stroke:#00ff00;stroke-opacity:1"
       id="rect3927"
       width="320"
       height="40"
       x="410"
       y="182.36218" />
    <rect
       style="fill:#2eb585;fill-opacity:0.43265309;stroke:#00ff00;stroke-opacity:1"
       id="rect3929"
       width="160"
       height="40"
       x="250"
       y="252.36218" />
    <rect
       style="fill:#2eb585;fill-opacity:0.43265309;stroke:#00ff00;stroke-opacity:1"
       id="rect3931"
       width="160"
       height="40"
       x="570"
       y="252.36218" />
    <rect
       style="fill:#2eb585;fill-opacity:0.43265309;stroke:#00ff00;stroke-opacity:1"
       id="rect3933"
       width="80"
       height="40"
       x="170"
       y="322.36218" />
    <rect
       style="fill:#2eb585;fill-opacity:0.43265309;stroke:#00ff00;stroke-opacity:1"
       id="rect3935"
       width="80"
       height="40"
       x="330"
       y="322.36218" />
    <rect
       style="fill:#2eb585;fill-opacity:0.43265309;stroke:#00ff00;stroke-opacity:1"
       id="rect3937"
       width="80"
       height="40"
       x="490"
       y="322.36218" />
    <rect
       style="fill:#2eb585;fill-opacity:0.43265309;stroke:#00ff00;stroke-opacity:1"
       id="rect3939"
       width="80"
       height="40"
       x="650"
       y="322.36218" />
    <rect
       style="fill:#2eb585;fill-opacity:0.43265309;stroke:#00ff00;stroke-opacity:1"
       id="rect3941"
       width="30"
       height="20"
       x="70"
       y="402.36218" />
    <text
       xml:space="preserve"
       style="font-size:40px;font-style:normal;font-weight:normal;line-height:125%;letter-spacing:0px;word-spacing:0px;fill:#000000;fill-opacity:1;stroke:none;font-family:Sans"
       x="110"
       y="412.36218"
       id="text3943"
       sodipodi:linespacing="125%"><tspan
         sodipodi:role="line"
         id="tspan3945"
         x="110"
         y="412.36218"
         style="font-size:12px">Acceso de Wavuno para reproducción.</tspan></text>
    <text
       xml:space="preserve"
       style="font-size:40px;font-style:normal;font-weight:normal;line-height:125%;letter-spacing:0px;word-spacing:0px;fill:#000000;fill-opacity:1;stroke:none;font-family:Sans"
       x="60"
       y="452.36218"
       id="text3064-9-6"
       sodipodi:linespacing="125%"><tspan
         sodipodi:role="line"
         id="tspan3066-1-1"
         x="60"
         y="452.36218"
         style="font-size:20px">CPU</tspan></text>
    <text
       xml:space="preserve"
       style="font-size:12px;font-style:normal;font-weight:normal;line-height:125%;letter-spacing:0px;word-spacing:0px;fill:#000000;fill-opacity:1;stroke:none;font-family:Sans"
       x="107.85714"
       y="451.64789"
       id="text3989"
       sodipodi:linespacing="125%"><tspan
         sodipodi:role="line"
         id="tspan3991"
         x="107.85714"
         y="451.64789">Acceso del Z80 escritura o lectura.</tspan></text>
  </g>
</svg>
